<?xml version="1.0" encoding="utf-8"?>
<!-- Generator: Adobe Illustrator 27.9.0, SVG Export Plug-In . SVG Version: 6.00 Build 0)  -->
<svg version="1.1" id="Layer_1" xmlns="http://www.w3.org/2000/svg" xmlns:xlink="http://www.w3.org/1999/xlink" x="0px" y="0px"
	 viewBox="0 0 574.7 624.4" style="enable-background:new 0 0 574.7 624.4;" xml:space="preserve">
<style type="text/css">
	.st0{font-family:'Arial-Black';}
	.st1{font-size:143.9137px;}
	.st2{fill:#FFFFFF;stroke:#000000;stroke-width:28;stroke-linecap:round;stroke-linejoin:round;stroke-miterlimit:10;}
	.st3{fill:none;stroke:#000000;stroke-width:28;stroke-linecap:round;stroke-linejoin:round;stroke-miterlimit:10;}
</style>
<text transform="matrix(1 0 0 1 71.5833 552.5292)" class="st0 st1">Home</text>
<path class="st2" d="M317.7,206.1"/>
<polyline class="st3" points="133.6,206.1 133.6,397.2 444.3,397.2 444.3,206.1 "/>
<polyline class="st3" points="82.2,245.7 288.9,86.4 496.9,238 "/>
<rect x="252.6" y="287.4" class="st3" width="65.1" height="109.8"/>
<line class="st3" x1="133.6" y1="206.1" x2="133.6" y2="397.2"/>
<line class="st3" x1="444.3" y1="206.1" x2="444.3" y2="397.2"/>
<path class="st3" d="M507.6,592h-436c-26.4,0-48-21.6-48-48V82c0-26.4,21.6-48,48-48h436c26.4,0,48,21.6,48,48v462
	C555.5,570.4,534,592,507.6,592z"/>
</svg>
