<?xml version="1.0" encoding="utf-8"?>
<!-- Generator: Adobe Illustrator 27.9.0, SVG Export Plug-In . SVG Version: 6.00 Build 0)  -->
<svg version="1.1" id="Layer_1" xmlns="http://www.w3.org/2000/svg" xmlns:xlink="http://www.w3.org/1999/xlink" x="0px" y="0px"
	 viewBox="0 0 573.5 645.7" style="enable-background:new 0 0 573.5 645.7;" xml:space="preserve">
<style type="text/css">
	.st0{font-family:'Arial-Black';}
	.st1{font-size:138.7829px;}
	.st2{fill:#FFFFFF;stroke:#000000;stroke-width:28;stroke-linecap:round;stroke-linejoin:round;stroke-miterlimit:10;}
	.st3{fill:none;stroke:#000000;stroke-width:28;stroke-linecap:round;stroke-linejoin:round;stroke-miterlimit:10;}
	.st4{fill:none;stroke:#000000;stroke-width:27;stroke-miterlimit:10;}
	.st5{font-family:'BrushScriptMT';}
	.st6{font-size:328.1407px;}
</style>
<text transform="matrix(1 0 0 1 137.8472 568.0715)" class="st0 st1">Info</text>
<path class="st2" d="M312.7,226.5"/>
<path class="st3" d="M439.4,226.5"/>
<path class="st3" d="M439.4,417.7"/>
<path class="st3" d="M491.9,258.4"/>
<path class="st3" d="M284,106.9"/>
<path class="st3" d="M247.7,307.9"/>
<path class="st3" d="M247.7,417.7"/>
<path class="st2" d="M439.4,226.5"/>
<ellipse class="st4" cx="284" cy="258.4" rx="172.4" ry="165.1"/>
<text transform="matrix(1.0443 0 0 1 237.8203 361.465)" class="st5 st6">i</text>
<path class="st3" d="M505,608.9H69c-26.4,0-48-21.6-48-48v-462c0-26.4,21.6-48,48-48h436c26.4,0,48,21.6,48,48v462
	C553,587.3,531.4,608.9,505,608.9z"/>
</svg>
