<?xml version="1.0" encoding="utf-8"?>
<!-- Generator: Adobe Illustrator 27.9.0, SVG Export Plug-In . SVG Version: 6.00 Build 0)  -->
<svg version="1.1" xmlns="http://www.w3.org/2000/svg" xmlns:xlink="http://www.w3.org/1999/xlink" x="0px" y="0px"
	 viewBox="0 0 1063 1890.7" style="enable-background:new 0 0 1063 1890.7;" xml:space="preserve">
<style type="text/css">
	.st0{fill:#B1DAAE;}
	.st1{fill:#FFFFFF;stroke:#231F20;stroke-width:2;stroke-miterlimit:10;}
	.st2{stroke:#231F20;stroke-miterlimit:10;}
	.st3{fill:#FFFFFF;stroke:#231F20;stroke-miterlimit:10;}
	.st4{fill:#FFFFFF;stroke:#000000;stroke-miterlimit:10;}
	.st5{fill:none;stroke:#231F20;stroke-miterlimit:10;}
	.st6{stroke:#414042;stroke-width:10;stroke-miterlimit:10;}
	.st7{fill:#58595B;}
	.st8{fill:none;stroke:#414042;stroke-width:10;stroke-miterlimit:10;}
	.st9{fill:#BE1E2D;stroke:#414042;stroke-width:10;stroke-miterlimit:10;}
	.st10{fill:none;stroke:#414042;stroke-width:4;stroke-miterlimit:10;}
	.st11{fill:#00AEEF;stroke:#414042;stroke-width:10;stroke-miterlimit:10;}
	.st12{fill:#F26A21;stroke:#414042;stroke-width:10;stroke-miterlimit:10;}
	.st13{fill:none;stroke:#000000;stroke-width:5;stroke-miterlimit:10;}
	.st14{fill:#FFFFFF;stroke:#000000;stroke-width:5;stroke-miterlimit:10;}
	.st15{fill:none;stroke:#000000;stroke-miterlimit:10;}
	.st16{fill:#936627;stroke:#000000;stroke-width:5;stroke-miterlimit:10;}
	.st17{fill:#D09B2A;stroke:#000000;stroke-width:3;stroke-miterlimit:10;}
	.st18{fill:#9E6026;stroke:#231F20;stroke-width:2;stroke-miterlimit:10;}
	.st19{stroke:#231F20;stroke-width:2;stroke-miterlimit:10;}
	.st20{fill:#7F3119;stroke:#000000;stroke-width:2;stroke-miterlimit:10;}
	.st21{fill:#FFFFFF;stroke:#000000;stroke-width:2;stroke-miterlimit:10;}
	.st22{fill:#935523;stroke:#000000;stroke-width:5;stroke-miterlimit:10;}
	.st23{fill:#AC8120;stroke:#000000;stroke-width:2;stroke-miterlimit:10;}
	.st24{fill:#D19B2A;stroke:#000000;stroke-width:3;stroke-miterlimit:10;}
	.st25{fill:#B1DAAE;stroke:#000000;stroke-miterlimit:10;}
	.st26{stroke:#000000;stroke-miterlimit:10;}
	.st27{fill:#D31F37;stroke:#000000;stroke-width:3;stroke-miterlimit:10;}
	.st28{fill:#BA192F;stroke:#000000;stroke-width:2;stroke-miterlimit:10;}
	.st29{fill:#89232F;stroke:#231F20;stroke-miterlimit:10;}
	.st30{fill:#B5273B;stroke:#231F20;stroke-miterlimit:10;}
</style>
<g id="Layer_1">
	<rect class="st0" width="1063" height="1890.7"/>
</g>
<g id="doos">
	<g id="voetbal">
		
			<ellipse transform="matrix(0.9927 -0.1205 0.1205 0.9927 -80.8834 112.7003)" class="st1" cx="891.2" cy="725" rx="112.2" ry="113.9"/>
		<polygon class="st2" points="931.6,769.7 948.6,744.2 979.1,746.2 992.6,773.6 975.7,799 945.2,797.1 		"/>
		<polygon class="st2" points="886.8,739.7 903.7,714.3 934.2,716.2 947.8,743.6 930.8,769 900.3,767.1 		"/>
		<polygon class="st3" points="838.2,763.8 855.1,738.4 885.6,740.3 899.2,767.7 882.2,793.1 851.7,791.2 		"/>
		<polygon class="st4" points="890,685.6 906.9,660.2 937.4,662.1 951,689.5 934.1,715 903.6,713 		"/>
		<polygon class="st2" points="845.7,656.8 862.6,631.3 893.1,633.3 906.7,660.7 889.8,686.1 859.3,684.2 		"/>
		<polygon class="st5" points="797.1,680.9 814,655.4 844.5,657.4 858.1,684.7 841.2,710.2 810.7,708.2 		"/>
		<polygon class="st2" points="793.1,733.6 810,708.2 840.5,710.1 854.1,737.5 837.2,763 806.7,761 		"/>
		<polygon class="st2" points="883,792.3 899.9,766.8 930.4,768.8 944,796.2 927.1,821.6 896.6,819.7 		"/>
		<polygon class="st3" points="935,715.8 951.9,690.4 982.4,692.3 996,719.7 979,745.2 948.5,743.2 		"/>
		<path class="st2" d="M965.3,639.7c9.7,5.4,26.3,34.7,26.3,34.7l-9.2,18l-31.4-2.8l-13.6-27.4l13.8-21.2L965.3,639.7z"/>
		<line class="st5" x1="893.1" y1="633.3" x2="909" y2="613.1"/>
		<line class="st5" x1="862.6" y1="631.3" x2="853.9" y2="617.4"/>
		<line class="st5" x1="814" y1="655.4" x2="808.5" y2="647.7"/>
		<line class="st5" x1="793.1" y1="733.6" x2="779.4" y2="735.3"/>
		<polyline class="st5" points="851.7,791.2 833.6,814.4 819.4,812.2 		"/>
		<line class="st5" x1="806.7" y1="761" x2="792.1" y2="778.1"/>
		<line class="st3" x1="797.1" y1="680.9" x2="787.7" y2="680.4"/>
		<circle class="st6" cx="89" cy="1339.5" r="188.4"/>
		<path class="st7" d="M165.4,1324.5c0.2-7.4-10.8-29.4-19.8-36.5l78.5-78.3c0,0,45.7,46.7,50.2,90.3L165.4,1324.5z"/>
		<path class="st7" d="M68.1,1270.3c-7.4,0.7-27.9,14.2-33.9,23.9l-86.9-68.8c0,0,41-50.8,83.8-60.4L68.1,1270.3z"/>
		<path class="st7" d="M22,1347.4c0,0,1,14.2,6.6,23.9l-102.4,55c0,0-22.8-30.4-20.8-65.7L22,1347.4z"/>
		<path class="st7" d="M118.5,1407.6c0,0,4.5-0.4,11.1-4l53.4,96.8c0,0-15.6,11.9-26.1,12.8L118.5,1407.6z"/>
		<path class="st7" d="M138.8,1398.3c0,0,10-8.9,13.4-13.6l85.7,65.9c0,0-13.6,22.5-32.5,35.6L138.8,1398.3z"/>
		<circle class="st8" cx="90.4" cy="1341.1" r="188.4"/>
		<circle class="st9" cx="93.3" cy="1339.5" r="68.1"/>
		<circle class="st10" cx="88.4" cy="1341.6" r="158.9"/>
		<ellipse class="st10" cx="93.3" cy="1340.3" rx="130.9" ry="132.5"/>
		<ellipse class="st10" cx="93.3" cy="1338.9" rx="105.1" ry="106.5"/>
		<path class="st6" d="M-53.2,1241c-69.2-77.6-62.4-196.7,15.2-266s196.7-62.4,266,15.2s62.4,196.7-15.2,266
			C135.1,1325.5,16,1318.7-53.2,1241"/>
		<path class="st7" d="M134.4,1053.6c-4.8-5.7-27.6-14.7-39.1-14.1l6.5-110.7c0,0,65.2,4.5,97.6,34L134.4,1053.6z"/>
		<path class="st7" d="M25.7,1077.9c-5.1,5.4-11.4,29.2-9.4,40.5l-110.7,6.5c0,0-3.2-65.3,22.4-100.9L25.7,1077.9z"/>
		<path class="st7" d="M-35.6,1253.6l78.2-87.4c0,0,10.2,9.9,20.8,13.4l-39.8,109.2C23.6,1288.8-13.7,1281.3-35.6,1253.6"/>
		<path class="st7" d="M154.6,1146.9c0,0,3.1-3.3,5.6-10.4l104.3,36.7c0,0-3.7,19.3-11,26.9L154.6,1146.9z"/>
		<path class="st7" d="M163.6,1126.4c0,0,1.5-13.3,0.9-19.1l107.8-7.8c0,0,4.8,25.9-0.6,48.2L163.6,1126.4z"/>
		<path class="st8" d="M-51.1,1241.3c-69.2-77.6-62.4-196.7,15.2-266s196.7-62.4,266,15.2s62.4,196.7-15.2,266
			C137.2,1325.8,18.2,1319-51.1,1241.3"/>
		<circle class="st11" cx="90.5" cy="1112.8" r="68.1"/>
		<circle class="st10" cx="88.3" cy="1117.6" r="158.9"/>
		
			<ellipse transform="matrix(0.7463 -0.6656 0.6656 0.7463 -718.022 343.1296)" class="st10" cx="91.1" cy="1113.4" rx="130.9" ry="132.5"/>
		
			<ellipse transform="matrix(0.7463 -0.6656 0.6656 0.7463 -717.5524 342.2238)" class="st10" cx="90.1" cy="1112.4" rx="105.1" ry="106.5"/>
		<path class="st6" d="M85.2,1243.5c0-104,84.3-188.4,188.4-188.4S462,1139.4,462,1243.5s-84.3,188.4-188.4,188.4
			S85.2,1347.5,85.2,1243.5"/>
		<path class="st7" d="M350,1228.5c0.2-7.4-10.8-29.4-19.8-36.5l78.5-78.3c0,0,45.7,46.7,50.2,90.3L350,1228.5z"/>
		<path class="st7" d="M252.7,1174.2c-7.4,0.7-27.9,14.2-33.9,23.9l-86.9-68.8c0,0,41-50.8,83.8-60.4L252.7,1174.2z"/>
		<path class="st7" d="M90,1264.6l116.5-13.1c0,0,1,14.2,6.6,23.9l-102.4,55C110.8,1330.3,87.9,1299.9,90,1264.6"/>
		<path class="st7" d="M303,1311.6c0,0,4.5-0.4,11.1-4l53.4,96.8c0,0-15.6,11.9-26.1,12.8L303,1311.6z"/>
		<path class="st7" d="M323.3,1302.3c0,0,10-8.9,13.4-13.6l85.7,65.9c0,0-13.6,22.5-32.5,35.6L323.3,1302.3z"/>
		<path class="st8" d="M86.6,1245.1c0-104,84.3-188.4,188.4-188.4s188.4,84.3,188.4,188.4S379,1433.5,275,1433.5
			S86.6,1349.2,86.6,1245.1"/>
		<circle class="st12" cx="277.9" cy="1243.5" r="68.1"/>
		<circle class="st10" cx="273" cy="1245.6" r="158.9"/>
		<ellipse class="st10" cx="277.9" cy="1244.3" rx="130.9" ry="132.5"/>
		<ellipse class="st10" cx="277.9" cy="1242.9" rx="105.1" ry="106.5"/>
		<path class="st13" d="M950,66.6"/>
		<path class="st13" d="M950,109"/>
		<path class="st13" d="M961.9,73.7"/>
		<path class="st14" d="M950,66.6"/>
		<path class="st13" d="M953.9,73.7"/>
		<path class="st15" d="M545.4,1128.3"/>
	</g>
	<polygon class="st16" points="1062.3,1109.2 794.4,852.3 1062.3,624.7 	"/>
	<path class="st17" d="M717,817.1c-14.2,36.7-61.9-10.7-19.4-22.7c-9-12.1-1.6-49.1-1.6-49.1c-13.7-6.6-18.3-22-13-32
		c3.7-6.9,12.5-11.9,21.5-10.2c11.1,2,15.1,13,15.3,13.6c0,0,47.5-14,86.3,49.5c10.2,15.5,2.9,40-11.1,45.5
		C781,817.3,751.3,830.6,717,817.1z"/>
	<circle class="st18" cx="733.6" cy="749.9" r="12"/>
	<circle class="st18" cx="733.6" cy="786.8" r="12"/>
	<circle class="st2" cx="733.7" cy="745.7" r="2.1"/>
	<circle class="st2" cx="735.1" cy="754.7" r="2.1"/>
	<circle class="st2" cx="739.1" cy="749.7" r="2.1"/>
	<circle class="st2" cx="729.1" cy="750.7" r="2.1"/>
	<circle class="st19" cx="731.1" cy="782.6" r="1.9"/>
	<circle class="st19" cx="729.2" cy="789.5" r="1.9"/>
	<circle class="st19" cx="738.2" cy="784.5" r="1.9"/>
	<circle class="st19" cx="736.2" cy="791.5" r="1.9"/>
	<path class="st19" d="M761.4,766.9c6.5-0.8,8.1,7.6,8.5,10.3c-2.1,2.7-6.7,3.5-10.7,1.6S757.7,767.3,761.4,766.9z"/>
	<polygon class="st20" points="956,715 942.4,584.8 1062.3,562.6 1062.3,624.7 	"/>
	<polygon class="st20" points="914.3,591.1 1014.3,475.5 1062.3,507.3 1062.3,567.2 	"/>
	
		<ellipse transform="matrix(0.9918 -0.1275 0.1275 0.9918 -72.9029 133.7739)" class="st21" cx="1008.1" cy="636.1" rx="38.3" ry="42.1"/>
	<polygon class="st22" points="1062.3,624.7 1044.1,796.5 829.6,978.4 794.4,852.3 	"/>
	<path class="st23" d="M923.2,808.8c0,0,39.8-4.6,4.8-35.1C914.4,771.1,907.7,814.8,923.2,808.8z"/>
	<path class="st17" d="M795,811.7c-16,22.8,7.7,33.5,7.7,33.5l62.2-52.9c0,0-24.8-25.6-54.1-6.3"/>
	<path class="st24" d="M842.9,797c-5.9,1.5-37.5-20.6,2.7-31.5c40.1-10.9,79.1,6.6,79.1,6.6s-18.3,19.7-9.8,34
		C914.8,806.1,867,790.9,842.9,797z"/>
	
		<ellipse transform="matrix(0.9918 -0.1275 0.1275 0.9918 -73.1084 133.8138)" class="st4" cx="1008.3" cy="637.8" rx="25" ry="27.4"/>
	<line class="st25" x1="1000.8" y1="611.1" x2="998.9" y2="602.1"/>
	<line class="st25" x1="1041.4" y1="631" x2="1032.3" y2="632.4"/>
	<line class="st25" x1="975" y1="643.6" x2="984.1" y2="642.3"/>
	<line class="st25" x1="1021" y1="615" x2="1025.7" y2="607.1"/>
	<line class="st25" x1="991.3" y1="667.9" x2="996" y2="660"/>
	<line class="st25" x1="986.7" y1="624" x2="979.6" y2="618.2"/>
	<circle class="st26" cx="1008.4" cy="637.8" r="4.9"/>
	<polyline class="st15" points="1008.4,632.8 1008.1,615 1005.2,618.2 	"/>
	<line class="st15" x1="1011.3" y1="618.2" x2="1008.1" y2="615"/>
	<polyline class="st15" points="1011.3,641.8 1016.1,649 1017,645.4 	"/>
	<line class="st25" x1="1012.3" y1="649.7" x2="1016.1" y2="649.7"/>
	<path class="st20" d="M1053.5,533.3"/>
	<polyline class="st20" points="1062.3,515 1062.4,557.6 1053.5,558.9 935.8,577.9 1015.4,486 1053.5,511.3 1062.1,516.6 	"/>
</g>
<g id="kleding_doos">
	<path class="st27" d="M865.9,761.9c2.4-25.3,2.9-55-13.9-85.2c-16.8-30.2-45.7-22.3-56.7-78.1c0,0-8.1-63.3-4.9-53.9l59.2-1
		c-2,5.3-11.7,32.1,0.5,58.3c5,10.6,10.5,22.6,21.6,27.1c3.3,1.3,10.1,3.2,15.3,9.6c2.1,2.6,3.2,4.9,4.3,7.7
		c4.6,11.1,7.8,23.3,10.6,37.9c0.7,3.7,1.4,8,2.9,14.9c1.2,5.8,1.9,8.8,2.4,10.6c4.8,16.2,18.4,28.2,18.4,28.2l0,0l-23.9,24H865.9z"
		/>
	<path class="st28" d="M851.3,525.3c1.2,3.8-2.3,30.5-6.5,34c-4.2,3.5-27,19.5-54,1.7l-5.2-34c0,0,6.5-2.1,9.6-0.5l7.7-5.5l3.7,3.6
		l5.3-3.5l5.1,3.4l7-3.3l15.5,2.6l4.1-2.9L851.3,525.3z"/>
	<path class="st29" d="M846.8,532.2c-0.9,0.8-31.6,18.9-55.8,1.6c0,0-2.7-1.8-0.8-3.3c1.8-1.5,41.1,1.5,53.3-3.2
		C849.8,526.7,846.8,532.2,846.8,532.2z"/>
	<path class="st30" d="M822.2,569.2c0,0,0,54.2,23.5,68.5c25.1,5.9,38.5,20,37.3,30.2c-1.3,10.1,9.6,72.5,26.8,81.8l2.1,1.3
		l12.9-13.1c0,0-18.6-22.2-18.8-30.4c-0.2-8.2-10.2-57.1-16-63.1c0,0-2.2-9.1-12.9-12.1c-10.7-3-35.8-20.4-32.6-71.3
		C844.3,560.9,827.2,570.5,822.2,569.2z"/>
</g>
</svg>
