<?xml version="1.0" encoding="utf-8"?>
<!-- Generator: Adobe Illustrator 27.9.0, SVG Export Plug-In . SVG Version: 6.00 Build 0)  -->
<svg version="1.1" id="Layer_1" xmlns="http://www.w3.org/2000/svg" xmlns:xlink="http://www.w3.org/1999/xlink" x="0px" y="0px"
	 viewBox="0 0 582.1 639.3" style="enable-background:new 0 0 582.1 639.3;" xml:space="preserve">
<style type="text/css">
	.st0{stroke:#000000;stroke-miterlimit:10;}
	.st1{fill:none;stroke:#000000;stroke-width:30;stroke-linecap:round;stroke-linejoin:round;stroke-miterlimit:10;}
	.st2{font-family:'ArialMT';}
	.st3{font-size:86.0153px;}
	.st4{fill:none;stroke:#000000;stroke-width:28;stroke-linecap:round;stroke-linejoin:round;stroke-miterlimit:10;}
</style>
<g id="Layer_1_00000163777617545903864220000000347073318552590209_">
	<path d="M125.8,350c-1.3-12.6-18-150.7-17.3-163.4s26.7-8.7,22,0S147.2,344,147.2,344l110,1.3c0,0,26,14.7,0,26h-12l8,78.7
		c0,0-8.8,20.7-21.1,0l-8.9-78l-54.7,0.7l-9.3,79.4c0,0-15.3,20.7-21.3-2.7l8.7-78C146.5,371.4,129,380.3,125.8,350z"/>
	<polygon points="248.5,248.6 248.5,274 345.2,274 345.2,454.1 450.6,454.1 450.6,248.6 	"/>
</g>
<g id="werk">
	<circle class="st0" cx="186.5" cy="115.5" r="45.6"/>
	<path class="st0" d="M150.5,181.3c2-10.7,59.4-28,103.4,13.3c27.3,16,48,7.3,54,6.7c6-0.7,25.3,20.7,0,34h-50.7
		c0,0-17.5-2.7-25.1-13.3c0,16.7,1.8,56.7,3.4,63.4c1.6,6.7,57.7,3.3,59.7,4s30.1,13.3,25.4,34.7c0,0,0.5,103.4,0.5,113.4
		s-20.6,41.3-42.6,0l-1.3-97.4c0,0,2.7-6.7-11.3-6.7s-88,0.7-88,0.7s-20-6-20.7-17.3C156.5,305.3,150.5,181.3,150.5,181.3z"/>
	<polyline class="st1" points="350.6,225.3 421.3,225.3 453.3,157.3 	"/>
	<text transform="matrix(1 0 0 1 84.7314 557.7819)" class="st2 st3">Werken bij</text>
</g>
<path class="st4" d="M509,598.5H73c-26.4,0-48-21.6-48-48v-462c0-26.4,21.6-48,48-48h436c26.4,0,48,21.6,48,48v462
	C557,576.9,535.4,598.5,509,598.5z"/>
</svg>
